<svg xmlns="http://www.w3.org/2000/svg" viewBox="0 0 511.84 481.9" id="winter-cabin"><g data-name="Layer 2"><g data-name="Winter Cabin"><path d="M31.3,177.41A31.18,31.18,0,0,1,17,118.48L241.7,3.42a31.25,31.25,0,0,1,28.43,0L494.86,118.48A31.19,31.19,0,0,1,466.42,174L261,68.84a11.19,11.19,0,0,0-10.2,0L45.41,174A30.9,30.9,0,0,1,31.3,177.41ZM255.92,20a11.18,11.18,0,0,0-5.1,1.23L26.1,136.28a11.19,11.19,0,0,0-4.46,15.78A11.23,11.23,0,0,0,36.3,156.2L241.7,51a31.25,31.25,0,0,1,28.43,0L475.54,156.2h0a11.23,11.23,0,0,0,14.66-4.14,11.19,11.19,0,0,0-4.46-15.78L261,21.22A11.18,11.18,0,0,0,255.92,20Z"></path><path d="M471.73,241H40.11a40.12,40.12,0,0,1,0-80.23H471.73a40.12,40.12,0,0,1,0,80.23ZM40.11,180.77a20.12,20.12,0,0,0,0,40.23H471.73a20.12,20.12,0,0,0,0-40.23Z"></path><path d="M40.11 241a40.12 40.12 0 1140.12-40.11A40.16 40.16 0 0140.11 241zm0-60.23a20.12 20.12 0 1020.12 20.12A20.14 20.14 0 0040.11 180.77zM471.73 241a40.12 40.12 0 1140.11-40.11A40.17 40.17 0 01471.73 241zm0-60.23a20.12 20.12 0 1020.11 20.12A20.15 20.15 0 00471.73 180.77z"></path><path d="M471.73,301.22H40.11a40.11,40.11,0,0,1,0-80.22H471.73a40.11,40.11,0,0,1,0,80.22ZM40.11,241a20.11,20.11,0,0,0,0,40.22H471.73a20.11,20.11,0,0,0,0-40.22Z"></path><path d="M40.11 301.22a40.11 40.11 0 1140.12-40.11A40.15 40.15 0 0140.11 301.22zm0-60.22a20.11 20.11 0 1020.12 20.11A20.13 20.13 0 0040.11 241zM471.73 301.22a40.11 40.11 0 1140.11-40.11A40.16 40.16 0 01471.73 301.22zm0-60.22a20.11 20.11 0 1020.11 20.11A20.14 20.14 0 00471.73 241z"></path><path d="M471.73,361.45H331.2a10,10,0,0,1,0-20H471.73a20.12,20.12,0,0,0,0-40.23H40.11a20.12,20.12,0,0,0,0,40.23H180.64a10,10,0,0,1,0,20H40.11a40.12,40.12,0,0,1,0-80.23H471.73a40.12,40.12,0,0,1,0,80.23Z"></path><path d="M40.11 361.45a40.12 40.12 0 1140.12-40.11A40.16 40.16 0 0140.11 361.45zm0-60.23a20.12 20.12 0 1020.12 20.12A20.14 20.14 0 0040.11 301.22zM471.73 361.45a40.12 40.12 0 1140.11-40.11A40.17 40.17 0 01471.73 361.45zm0-60.23a20.12 20.12 0 1020.11 20.12A20.15 20.15 0 00471.73 301.22z"></path><path d="M180.64 421.67H40.11a40.11 40.11 0 010-80.22H180.64a10 10 0 010 20H40.11a20.11 20.11 0 100 40.22H180.64a10 10 0 010 20zM471.73 421.67H331.2a10 10 0 010-20H471.73a20.11 20.11 0 000-40.22H331.2a10 10 0 010-20H471.73a40.11 40.11 0 010 80.22z"></path><path d="M40.11 421.67a40.11 40.11 0 1140.12-40.11A40.15 40.15 0 0140.11 421.67zm0-60.22a20.11 20.11 0 1020.12 20.11A20.13 20.13 0 0040.11 361.45zM471.73 421.67a40.11 40.11 0 1140.11-40.11A40.16 40.16 0 01471.73 421.67zm0-60.22a20.11 20.11 0 1020.11 20.11A20.14 20.14 0 00471.73 361.45z"></path><path d="M471.73,481.9H40.11a40.12,40.12,0,0,1,0-80.23H180.64a10,10,0,0,1,0,20H40.11a20.12,20.12,0,0,0,0,40.23H471.73a20.12,20.12,0,0,0,0-40.23H331.2a10,10,0,0,1,0-20H471.73a40.12,40.12,0,0,1,0,80.23Z"></path><path d="M40.11 481.9a40.12 40.12 0 1140.12-40.11A40.16 40.16 0 0140.11 481.9zm0-60.23a20.12 20.12 0 1020.12 20.12A20.14 20.14 0 0040.11 421.67zM471.73 481.9a40.12 40.12 0 1140.11-40.11A40.17 40.17 0 01471.73 481.9zm0-60.23a20.12 20.12 0 1020.11 20.12A20.15 20.15 0 00471.73 421.67zM331.2 481.9H180.64a10 10 0 01-10-10V291.22a10 10 0 0110-10H331.2a10 10 0 0110 10V471.9A10 10 0 01331.2 481.9zm-140.56-20H321.2V301.22H190.64z"></path><path d="M331.2,391.56H301.09a10,10,0,0,1,0-20H331.2a10,10,0,0,1,0,20Z"></path></g></g></svg>