<svg xmlns="http://www.w3.org/2000/svg" viewBox="0 0 64 64" id="bed"><circle cx="59.5" cy="40.26" r="1.149"></circle><circle cx="4.562" cy="40.26" r="1.149"></circle><path d="M62.58,25.3H56.419a1,1,0,0,0-1,1v3.1A7.788,7.788,0,0,0,49.606,26.8H17.777A7.161,7.161,0,0,0,10.7,20.639H8.643V13a1,1,0,0,0-1-1H1.482a1,1,0,0,0-1,1V51.623a1,1,0,0,0,1,1H7.643a1,1,0,0,0,1-1V44.684H55.419v6.939a1,1,0,0,0,1,1H62.58a1,1,0,0,0,1-1V26.3A1,1,0,0,0,62.58,25.3Zm-7.161,9.305v1.627H8.643V28.8H49.606A5.818,5.818,0,0,1,55.419,34.607ZM10.7,22.639A5.161,5.161,0,0,1,15.754,26.8H8.643V22.639ZM6.643,50.623H2.482V14H6.643V50.623Zm2-7.939v-4.45H55.419v4.45ZM61.58,50.623H57.419V27.3H61.58Z"></path></svg>